<svg width="120" height="37" viewBox="0 0 120 37" fill="none" xmlns="http://www.w3.org/2000/svg">
<path fill-rule="evenodd" clip-rule="evenodd" d="M63.9727 24.0981V12.5721C63.9727 12.3965 64.0102 12.3452 64.1961 12.3452C65.8699 12.3535 67.5438 12.3535 69.2177 12.3452C69.3739 12.3452 69.4161 12.3841 69.4161 12.541V35.6475C69.4161 35.8106 69.3755 35.8541 69.2099 35.8541C67.535 35.8479 65.8611 35.8479 64.1883 35.8541C64.0164 35.8541 63.9727 35.8106 63.9727 35.6413C63.9747 31.793 63.9747 27.9453 63.9727 24.0981ZM44.3926 24.7595V13.8829C44.3926 13.698 44.4332 13.6452 44.6269 13.6467C45.6037 13.6532 46.5805 13.6514 47.5573 13.6495C49.1413 13.6466 50.7253 13.6436 52.3093 13.6762C53.4952 13.7011 54.6858 13.7462 55.8482 13.9963C58.0012 14.4625 59.5058 15.7428 60.4214 17.7083C60.9604 18.8644 61.1338 20.1027 61.1135 21.3706C61.0932 22.6385 60.901 23.8303 60.3448 24.9599C59.3761 26.9208 57.7986 28.0525 55.6123 28.3549C54.4826 28.5103 53.3452 28.5103 52.2093 28.5103H50.3344C50.1688 28.5103 50.1266 28.5507 50.1266 28.7154C50.1266 31.0181 50.1266 33.3209 50.136 35.622C50.136 35.81 50.0907 35.8567 49.9016 35.8551C48.1309 35.8468 46.3633 35.8468 44.5988 35.8551C44.4332 35.8551 44.3926 35.8131 44.3926 35.65C44.3957 32.0203 44.3957 28.3902 44.3926 24.7595ZM36.447 27.3836V35.6498C36.447 35.8052 36.4158 35.858 36.2455 35.8564C34.3518 35.8502 32.4592 35.8502 30.5677 35.8564C30.3833 35.8564 30.3286 35.8191 30.3286 35.6249C30.3349 30.1348 30.3349 24.6448 30.3286 19.1547C30.3286 19.1251 30.329 19.0991 30.3294 19.0763C30.3306 18.9944 30.3313 18.9529 30.3108 18.932C30.2898 18.9106 30.2464 18.911 30.1585 18.9119C30.1389 18.9121 30.117 18.9123 30.0927 18.9123H25.5398C25.3836 18.9123 25.3398 18.8766 25.3398 18.7196C25.3461 17.0923 25.3461 15.466 25.3398 13.8407C25.3398 13.6947 25.3773 13.6543 25.5258 13.6543H41.2468C41.3858 13.6543 41.4264 13.6884 41.4264 13.8298V18.7258C41.4264 18.8719 41.3905 18.9139 41.2405 18.9123H36.6502C36.4798 18.9123 36.433 18.9543 36.433 19.1267C36.4455 21.8749 36.4502 24.6272 36.447 27.3836ZM78.0377 29.2601H83.678L89.3417 29.2663L89.37 29.2666C89.4645 29.2681 89.5448 29.2693 89.5448 29.1109C89.5323 27.6736 89.3745 26.2612 88.8402 24.9157C87.973 22.7341 86.4747 21.1912 84.1936 20.4734C82.801 20.0579 81.3337 19.9518 79.8954 20.1626C78.1892 20.377 76.6674 21.0172 75.4003 22.1825C73.002 24.3827 72.2755 27.1407 72.9004 30.2374C73.4707 33.1026 75.3019 34.9438 78.0377 35.915C79.4907 36.4308 81.0031 36.5194 82.528 36.4231C83.6593 36.3658 84.7708 36.1057 85.8091 35.6555C87.0872 35.0837 88.0918 34.226 88.6793 32.9317C88.7324 32.8151 88.7371 32.7608 88.5933 32.7048C87.3319 32.2055 86.0726 31.7 84.8154 31.1883C84.6826 31.1277 84.6373 31.1697 84.5795 31.2831C84.2724 31.9022 83.7459 32.3864 83.1014 32.6427C82.219 33.011 81.2427 33.0958 80.3094 32.8851C79.812 32.7934 79.3477 32.5727 78.9636 32.2453C78.5795 31.9179 78.2892 31.4954 78.122 31.0205C77.9412 30.5171 77.8461 29.9872 77.8408 29.4527C77.8361 29.2942 77.8814 29.2601 78.0377 29.2601ZM103.248 25.1581C102.768 24.8274 102.255 24.5458 101.718 24.3175C100.847 23.9396 99.9145 23.7227 98.9653 23.6773C98.553 23.6564 98.1403 23.709 97.7467 23.8327C97.6 23.8875 97.4609 23.9606 97.3326 24.0502C96.967 24.2926 96.7498 24.9825 97.2545 25.4036C97.6031 25.6772 98 25.8837 98.4247 26.0127C98.7945 26.1402 99.1739 26.2367 99.5534 26.3331C99.9227 26.427 100.292 26.5209 100.653 26.6435C101.4 26.8845 102.123 27.1967 102.81 27.5758C103.962 28.233 104.667 29.1917 104.821 30.5171C104.988 31.9699 104.688 33.2937 103.69 34.4125C103.002 35.1652 102.125 35.7228 101.15 36.0284C100.292 36.307 99.3958 36.4507 98.4935 36.4541C96.1935 36.5284 93.9124 36.0182 91.8657 34.9718C91.8128 34.9442 91.755 34.918 91.6966 34.8915C91.5191 34.8111 91.3355 34.728 91.2626 34.5912C91.1941 34.4624 91.2633 34.2877 91.3318 34.115L91.3319 34.1149C91.3601 34.0437 91.3882 33.973 91.4064 33.9059C91.6227 33.1185 91.8346 32.3318 92.0461 31.5463L92.0469 31.5434C92.1406 31.1953 92.2343 30.8475 92.3282 30.5C92.3764 30.4865 92.4011 30.5118 92.4248 30.5361C92.4311 30.5425 92.4373 30.5489 92.4438 30.5544C93.7711 31.7031 95.4253 32.4118 97.1764 32.5821C97.7537 32.6592 98.3404 32.6276 98.906 32.4889C99.0746 32.4427 99.2356 32.3726 99.3841 32.2807C99.5387 32.1938 99.6687 32.0696 99.7622 31.9194C99.8556 31.7693 99.9095 31.5981 99.9186 31.4217C99.9278 31.2454 99.8921 31.0696 99.8148 30.9106C99.7374 30.7517 99.621 30.6147 99.4762 30.5124C99.0388 30.1737 98.5201 30.0106 97.9935 29.8769L97.8468 29.8397C96.8144 29.5775 95.7819 29.3153 94.8078 28.8732C94.5246 28.7426 94.2482 28.5979 93.9797 28.4397C92.8501 27.7809 92.1782 26.8191 92.0407 25.5154C91.897 24.1559 92.197 22.9253 93.1547 21.8998C93.9253 21.0934 94.9231 20.5377 96.0171 20.3056C97.217 20.0181 98.431 20.015 99.6481 20.1346C101.232 20.3099 102.777 20.7347 104.226 21.3932C104.362 21.4523 104.409 21.5004 104.357 21.662C104.093 22.4769 103.837 23.2943 103.58 24.1111L103.58 24.1121L103.58 24.1132L103.579 24.1147C103.486 24.4134 103.392 24.712 103.298 25.0105C103.288 25.0533 103.273 25.0935 103.253 25.1444L103.248 25.1581ZM107.592 30.5726C107.548 30.5373 107.504 30.5012 107.459 30.4646C107.426 30.5765 107.397 30.6806 107.39 30.7785C107.06 32.005 106.726 33.2304 106.389 34.4548C106.359 34.5589 106.373 34.6102 106.47 34.6599C106.558 34.7058 106.645 34.7563 106.731 34.8069C106.811 34.8539 106.891 34.9008 106.973 34.9442C109.038 36.0085 111.345 36.5245 113.67 36.4421C114.733 36.4381 115.786 36.2319 116.771 35.8345C118.904 34.9318 120.057 33.2226 119.997 31.0271C119.957 29.5153 119.313 28.3515 117.977 27.5855C117.313 27.2168 116.616 26.9104 115.895 26.6703C115.502 26.5361 115.107 26.4348 114.713 26.334L114.713 26.334C114.322 26.234 113.933 26.1345 113.551 26.0037C113.112 25.8798 112.705 25.663 112.357 25.3682C112.266 25.2835 112.194 25.18 112.148 25.0649C112.101 24.9498 112.08 24.8259 112.087 24.702C112.093 24.578 112.127 24.457 112.186 24.3474C112.244 24.2378 112.326 24.1423 112.426 24.0677C112.585 23.9474 112.765 23.8579 112.957 23.8035C113.49 23.6595 114.046 23.6277 114.592 23.7103C115.897 23.8707 117.146 24.3355 118.237 25.0668C118.247 25.0737 118.257 25.082 118.267 25.0906C118.299 25.1164 118.331 25.1437 118.382 25.1367C118.398 25.0947 118.412 25.0543 118.424 25.0124C118.545 24.6293 118.666 24.2459 118.787 23.8624C119.018 23.129 119.248 22.3955 119.483 21.6639C119.532 21.5179 119.512 21.4573 119.365 21.3936C117.813 20.6891 116.152 20.2535 114.452 20.1055C113.287 20.02 112.131 20.0464 110.995 20.3417C110.136 20.5504 109.34 20.9571 108.668 21.5288C107.381 22.6506 106.959 24.0785 107.2 25.724C107.272 26.2576 107.464 26.7683 107.762 27.2182C108.059 27.6681 108.454 28.0459 108.918 28.3235C109.498 28.6882 110.119 28.9854 110.767 29.2092C111.383 29.4266 112.014 29.5912 112.646 29.7558C112.894 29.8206 113.142 29.8854 113.39 29.9534C113.867 30.0597 114.312 30.2776 114.687 30.5889C114.809 30.6963 114.904 30.8303 114.965 30.9805C115.026 31.1307 115.051 31.2929 115.037 31.4544C115.024 31.6158 114.974 31.772 114.89 31.9106C114.805 32.0492 114.69 32.1664 114.552 32.2531C114.201 32.4722 113.796 32.591 113.381 32.5964C111.339 32.7021 109.545 32.0386 107.928 30.8375C107.814 30.7552 107.706 30.6663 107.592 30.5726ZM0.0312406 23.8033C0.232213 21.2254 1.33834 18.7998 3.15607 16.951L3.27325 16.8314C3.28526 16.7902 3.30429 16.7513 3.3295 16.7164C4.11868 15.8956 5.03038 15.2007 6.03247 14.6561C6.11706 14.6161 6.19853 14.5699 6.27621 14.5178C7.47495 13.8859 8.77221 13.4593 10.1135 13.2561C10.6202 13.1877 11.1303 13.1473 11.6415 13.1349C13.7856 13.0695 15.9083 13.5754 17.7896 14.6002C17.8 14.6002 17.8105 14.6084 17.8209 14.6167C17.8261 14.6209 17.8313 14.625 17.8365 14.6281C18.3232 14.9039 18.7927 15.2085 19.2427 15.5402C19.7561 15.9354 20.2396 16.3675 20.6895 16.833C20.736 16.8829 20.774 16.9401 20.802 17.0023C20.8844 17.1017 20.968 17.2003 21.0517 17.2989L21.0519 17.2991L21.0519 17.2991C21.2378 17.5182 21.4238 17.7375 21.5972 17.9657C22.8676 19.6308 23.6355 21.621 23.8112 23.7038C24.069 26.5768 23.3956 29.2167 21.6769 31.5489C20.0022 33.8707 17.5248 35.4962 14.7195 36.114C10.9166 36.9888 7.43864 36.2026 4.37787 33.7988C2.31232 32.2112 0.865374 29.9594 0.284351 27.4283C0.174284 26.9445 0.092899 26.4548 0.0406147 25.9615C0.0406147 25.9544 0.0411892 25.9469 0.0417751 25.9392C0.0443946 25.905 0.0472428 25.8677 0 25.8512V24.1793C0.0248899 24.1387 0.0218654 24.0962 0.0188207 24.0534C0.0170873 24.0291 0.0153473 24.0047 0.0187482 23.9804C0.0127132 23.9211 0.0169339 23.8612 0.0312406 23.8033ZM17.7576 24.7776C17.7404 26.235 17.4748 27.5635 16.681 28.7444C15.8327 30.0045 14.714 30.9026 13.1797 31.187C9.66895 31.8349 7.17221 29.8911 6.38476 27.001C5.90041 25.2204 5.94259 23.4273 6.71755 21.7181C7.39564 20.2234 8.47057 19.0767 10.0877 18.5935C13.1922 17.6503 16.0405 19.0176 17.2748 22.1035C17.603 22.9568 17.7668 23.864 17.7576 24.7776Z" fill="#434242"/>
<path d="M50.1289 21.0598C50.1289 20.2596 50.1289 19.4594 50.1289 18.6576C50.1289 18.4882 50.1789 18.4541 50.3398 18.4556C51.1882 18.468 52.0382 18.437 52.8834 18.5551C53.2426 18.5993 53.5948 18.688 53.9318 18.8192C54.2262 18.9269 54.4892 19.1054 54.6972 19.3389C54.9052 19.5724 55.0518 19.8534 55.1239 20.157C55.2853 20.7667 55.2767 21.4086 55.0989 22.0138C55.0206 22.3031 54.8739 22.5696 54.6712 22.7912C54.4685 23.0127 54.2156 23.183 53.9334 23.2879C53.313 23.5197 52.6571 23.6432 51.9944 23.6531C51.432 23.6764 50.8695 23.6639 50.3086 23.6764C50.1664 23.6764 50.1289 23.6391 50.1305 23.4992C50.132 22.6866 50.1289 21.8755 50.1289 21.0598Z" fill="#FEFEFE"/>
<path d="M81.0845 26.2424C80.1049 26.2424 79.1252 26.2424 78.1456 26.2424C77.9894 26.2424 77.9534 26.2067 77.9894 26.0544C78.0559 25.7351 78.1533 25.4229 78.28 25.1222C78.8081 23.9366 79.8736 23.3089 81.1923 23.3384C82.8078 23.3726 83.9719 24.6078 84.1968 26.0669C84.2218 26.2222 84.1671 26.2487 84.025 26.2487C83.036 26.2393 82.0563 26.2424 81.0845 26.2424Z" fill="#FEFEFE"/>
<path fill-rule="evenodd" clip-rule="evenodd" d="M20.3364 16.5584C20.4883 16.7097 20.6401 16.8609 20.8015 17.0022C20.804 16.9571 20.804 16.912 20.8015 16.867V9.30777C20.8174 7.96698 20.6636 6.62954 20.3437 5.32694C19.7422 3.01801 18.3548 1.40983 16.0627 0.61584C15.0328 0.269681 13.9585 0.0713881 12.8723 0.0269522C11.5036 -0.0460762 10.1412 0.0160759 8.81 0.37811C6.98823 0.87377 5.51331 1.86043 4.50243 3.47327C3.8509 4.51276 3.61342 5.68587 3.4478 6.87452C3.30385 8.05127 3.24329 9.23664 3.26657 10.4218V16.825C3.40739 16.6978 3.54362 16.5657 3.67992 16.4336C3.90807 16.2125 4.13642 15.9912 4.38681 15.7917C4.97112 15.3311 5.59541 14.9229 6.25233 14.572C6.27257 14.4876 6.28047 14.4007 6.27577 14.3141V10.7015C6.26219 9.70994 6.30026 8.71833 6.38983 7.73066C6.44986 6.98917 6.60421 6.25823 6.84918 5.55535C7.02592 5.01663 7.31744 4.52216 7.70382 4.10566C8.2694 3.55454 8.97812 3.17093 9.75058 2.99781C10.7999 2.73725 11.885 2.64908 12.9629 2.73677C13.7658 2.77732 14.5511 2.98593 15.2675 3.34896C15.8134 3.61506 16.2929 3.99865 16.6712 4.47192C17.0496 4.94519 17.3172 5.49628 17.4548 6.0852C17.6706 6.97898 17.7823 7.89449 17.7876 8.81366C17.796 10.0463 17.7932 11.279 17.7904 12.5117C17.789 13.128 17.7876 13.7444 17.7876 14.3607C17.7683 14.4717 17.7882 14.5858 17.8439 14.6839C17.852 14.6895 17.8596 14.6956 17.8672 14.7017C17.8787 14.7108 17.8901 14.7199 17.9032 14.7274C18.6197 15.1241 19.2899 15.5983 19.9016 16.1414C20.0519 16.2751 20.1942 16.4168 20.3364 16.5584ZM10.6084 25.9906V26.2143C10.6084 26.3342 10.608 26.4553 10.6076 26.5746C10.6072 26.6902 10.6068 26.8041 10.6068 26.9135C10.6009 27.0787 10.6285 27.2434 10.688 27.3977C10.7475 27.5521 10.8376 27.6929 10.9531 27.8118C11.0685 27.9308 11.2068 28.0254 11.3598 28.09C11.5128 28.1546 11.6773 28.1879 11.8435 28.1879C12.0097 28.1879 12.1742 28.1546 12.3271 28.09C12.4801 28.0254 12.6184 27.9308 12.7339 27.8118C12.8493 27.6929 12.9394 27.5521 12.9989 27.3977C13.0584 27.2434 13.086 27.0787 13.0801 26.9135V25.4437C13.078 25.4013 13.0863 25.3591 13.1042 25.3207C13.1222 25.2822 13.1493 25.2487 13.1832 25.223C13.4632 24.9917 13.6749 24.6892 13.7957 24.3477C13.9164 24.0062 13.9418 23.6386 13.8691 23.2839C13.7909 22.8741 13.5888 22.4978 13.2897 22.2053C12.9906 21.9129 12.6088 21.7183 12.1955 21.6475C11.7821 21.5767 11.3569 21.6331 10.9766 21.8092C10.5964 21.9853 10.2793 22.2726 10.0678 22.6328C9.62718 23.3647 9.66937 24.3296 10.2522 24.9371C10.391 25.0722 10.4956 25.2382 10.5576 25.4213C10.6195 25.6044 10.6369 25.7995 10.6084 25.9906Z" fill="#49C758"/>
</svg>
