<svg width="161" height="48" viewBox="0 0 161 48" fill="none" xmlns="http://www.w3.org/2000/svg">
<g clip-path="url(#clip0_1697_49)">
<path d="M45.1946 33.7745C43.5253 33.7745 42.0877 33.4147 40.8761 32.6897C39.6646 31.9646 38.7384 30.9496 38.0815 29.6499C37.43 28.3502 37.1015 26.8357 37.1015 25.1064C37.1015 23.377 37.43 21.8679 38.0815 20.5628C38.733 19.2631 39.6646 18.2481 40.8761 17.523C42.0877 16.798 43.5253 16.4382 45.1946 16.4382C46.8638 16.4382 48.3015 16.798 49.513 17.523C50.7246 18.2481 51.6507 19.2631 52.3077 20.5628C52.9592 21.8625 53.2877 23.377 53.2877 25.1064C53.2877 26.8357 52.9592 28.3448 52.3077 29.6499C51.6561 30.955 50.7246 31.9646 49.513 32.6897C48.3015 33.4147 46.8638 33.7745 45.1946 33.7745ZM45.1946 30.8153C46.2553 30.8314 47.133 30.6059 47.8384 30.1333C48.5438 29.6606 49.0715 28.9947 49.4215 28.1354C49.7715 27.2707 49.9492 26.261 49.9492 25.1064C49.9492 23.9517 49.7715 22.9474 49.4215 22.0988C49.0715 21.2502 48.5438 20.595 47.8384 20.1224C47.133 19.6498 46.2553 19.4081 45.1946 19.392C44.1338 19.3759 43.2561 19.6068 42.5507 20.0741C41.8453 20.5413 41.323 21.2126 40.9677 22.0719C40.6177 22.9366 40.44 23.9463 40.44 25.101C40.44 26.2557 40.6177 27.26 40.9677 28.1085C41.3177 28.9571 41.8453 29.6177 42.5507 30.0849C43.2561 30.5522 44.1338 30.7992 45.1946 30.8153Z" fill="black"/>
<path d="M59.3561 33.4255V19.7142H54.0953V16.7765H67.7723V19.7142H62.5115V33.4255H59.3615H59.3561Z" fill="black"/>
<path d="M69.9692 33.4255V16.7819H77.0177C77.1792 16.7819 77.4 16.7872 77.6746 16.798C77.9492 16.8087 78.1915 16.8356 78.4123 16.8732C79.4084 17.0289 80.2269 17.3565 80.8623 17.856C81.4977 18.3555 81.9661 18.9892 82.2677 19.7465C82.5692 20.5037 82.72 21.3523 82.72 22.2814C82.72 23.2105 82.5692 24.0591 82.2623 24.8163C81.9554 25.5736 81.4869 26.2073 80.8515 26.7068C80.2161 27.2063 79.403 27.5339 78.4123 27.6896C78.1969 27.7218 77.9492 27.7433 77.6692 27.7594C77.3892 27.7756 77.1738 27.7809 77.0177 27.7809H73.1246V33.4201H69.9746L69.9692 33.4255ZM73.1192 24.8486H76.8723C77.0338 24.8486 77.2115 24.8432 77.4054 24.8271C77.5992 24.811 77.7769 24.7787 77.9384 24.7358C78.3638 24.623 78.6923 24.4243 78.9238 24.1504C79.1554 23.8765 79.3169 23.5704 79.4031 23.2374C79.4892 22.9044 79.5377 22.5822 79.5377 22.2814C79.5377 21.9806 79.4946 21.6638 79.4031 21.3254C79.3115 20.9924 79.1554 20.6863 78.9238 20.4124C78.6923 20.1385 78.3638 19.9452 77.9384 19.827C77.7769 19.7787 77.5992 19.7518 77.4054 19.7357C77.2115 19.7196 77.0338 19.7142 76.8723 19.7142H73.1192V24.8486Z" fill="black"/>
<path d="M85.6169 33.4255V16.7819H88.7669V30.4877H95.95V33.4255H85.6115H85.6169Z" fill="black"/>
<path d="M98.2708 33.4255V16.7819H109.164V19.7196H101.421V23.2803H107.769V26.2181H101.421V30.4931H109.164V33.4308H98.2708V33.4255Z" fill="black"/>
<path d="M118.598 33.7745C117.359 33.7745 116.245 33.5544 115.254 33.1193C114.263 32.6843 113.445 32.0613 112.809 31.245C112.174 30.4286 111.77 29.4619 111.598 28.3395L114.888 27.8561C115.119 28.8121 115.598 29.5479 116.325 30.0634C117.052 30.579 117.876 30.8368 118.808 30.8368C119.325 30.8368 119.825 30.7563 120.315 30.5951C120.8 30.434 121.204 30.1923 121.516 29.8808C121.828 29.564 121.985 29.1773 121.985 28.7154C121.985 28.5436 121.958 28.3824 121.909 28.2267C121.861 28.0709 121.775 27.9206 121.662 27.7809C121.543 27.6413 121.382 27.5124 121.166 27.3889C120.951 27.2653 120.687 27.1526 120.358 27.0559L116.024 25.783C115.701 25.6917 115.324 25.5575 114.893 25.391C114.462 25.2191 114.048 24.9775 113.649 24.6606C113.245 24.3437 112.912 23.9248 112.648 23.4092C112.378 22.8883 112.249 22.2331 112.249 21.4382C112.249 20.3211 112.529 19.392 113.095 18.6509C113.66 17.9097 114.414 17.3619 115.356 16.9967C116.298 16.6369 117.343 16.4596 118.485 16.465C119.637 16.4811 120.665 16.6798 121.565 17.0558C122.469 17.4317 123.223 17.9849 123.837 18.7046C124.445 19.4242 124.887 20.305 125.156 21.3469L121.748 21.9269C121.624 21.3899 121.398 20.9334 121.064 20.5628C120.73 20.1922 120.337 19.913 119.874 19.7196C119.416 19.5263 118.932 19.4242 118.431 19.4081C117.935 19.392 117.472 19.4618 117.036 19.6122C116.6 19.7626 116.245 19.9828 115.97 20.2674C115.695 20.5521 115.561 20.8904 115.561 21.2825C115.561 21.6423 115.674 21.9377 115.895 22.1686C116.121 22.3942 116.401 22.5768 116.74 22.7164C117.079 22.8561 117.429 22.9688 117.785 23.0655L120.681 23.8496C121.112 23.9624 121.591 24.1182 122.119 24.3061C122.647 24.4941 123.148 24.7573 123.632 25.0902C124.117 25.4232 124.515 25.869 124.828 26.4114C125.14 26.9538 125.296 27.652 125.296 28.4898C125.296 29.3814 125.108 30.1655 124.736 30.8314C124.359 31.4974 123.858 32.0506 123.223 32.4856C122.588 32.9206 121.872 33.2482 121.075 33.463C120.272 33.6779 119.448 33.7853 118.598 33.7853V33.7745Z" fill="black"/>
<path d="M134.843 33.7745C133.605 33.7745 132.49 33.5544 131.499 33.1193C130.508 32.6843 129.69 32.0613 129.055 31.245C128.419 30.4286 128.015 29.4619 127.843 28.3395L131.133 27.8561C131.365 28.8121 131.844 29.5479 132.571 30.0634C133.298 30.579 134.121 30.8368 135.053 30.8368C135.57 30.8368 136.071 30.7563 136.561 30.5951C137.045 30.434 137.449 30.1923 137.761 29.8808C138.074 29.564 138.23 29.1773 138.23 28.7154C138.23 28.5436 138.203 28.3824 138.155 28.2267C138.106 28.0709 138.02 27.9206 137.907 27.7809C137.788 27.6413 137.627 27.5124 137.411 27.3889C137.196 27.2653 136.932 27.1526 136.604 27.0559L132.269 25.783C131.946 25.6917 131.569 25.5575 131.138 25.391C130.708 25.2191 130.293 24.9775 129.895 24.6606C129.491 24.3437 129.157 23.9248 128.893 23.4092C128.624 22.8883 128.495 22.2331 128.495 21.4382C128.495 20.3211 128.775 19.392 129.34 18.6509C129.905 17.9097 130.659 17.3619 131.601 16.9967C132.544 16.6369 133.588 16.4596 134.73 16.465C135.882 16.4811 136.911 16.6798 137.81 17.0558C138.715 17.4317 139.468 17.9849 140.082 18.7046C140.691 19.4242 141.132 20.305 141.401 21.3469L137.993 21.9269C137.869 21.3899 137.643 20.9334 137.309 20.5628C136.975 20.1922 136.582 19.913 136.119 19.7196C135.661 19.5263 135.177 19.4242 134.676 19.4081C134.181 19.392 133.718 19.4618 133.281 19.6122C132.845 19.7626 132.49 19.9828 132.215 20.2674C131.941 20.5521 131.806 20.8904 131.806 21.2825C131.806 21.6423 131.919 21.9377 132.14 22.1686C132.366 22.3942 132.646 22.5768 132.985 22.7164C133.325 22.8561 133.675 22.9688 134.03 23.0655L136.927 23.8496C137.358 23.9624 137.837 24.1182 138.365 24.3061C138.892 24.4941 139.393 24.7573 139.878 25.0902C140.362 25.4232 140.761 25.869 141.073 26.4114C141.385 26.9538 141.541 27.652 141.541 28.4898C141.541 29.3814 141.353 30.1655 140.981 30.8314C140.605 31.4974 140.104 32.0506 139.468 32.4856C138.833 32.9206 138.117 33.2482 137.32 33.463C136.518 33.6779 135.694 33.7853 134.843 33.7853V33.7745Z" fill="black"/>
<path d="M30.3761 21.073V34.6607L23.9738 38.5276V24.4565C23.9738 22.566 22.9561 20.826 21.3031 19.8968L9.23074 13.0976L15.8054 9.23077L27.4415 15.9817C29.2615 17.0343 30.3761 18.9785 30.3761 21.073Z" fill="black"/>
<path d="M21.9061 32.6951V37.3568L9.23071 30.0097L13.113 27.6359L21.9061 32.6951Z" fill="black"/>
<path d="M9.23071 13.103V30.0097L13.113 27.6359L13.1669 15.3157L9.23071 13.103Z" fill="black"/>
<path d="M19.4292 24.3061C19.3161 24.4673 19.1384 24.5747 18.9284 24.6123L19.0846 27.2922L16.9953 26.0892L17.4153 24.0591C16.9738 23.6241 16.8284 23.0494 17.0923 22.6788C17.4046 22.2331 18.1799 22.2384 18.8261 22.6896C19.4723 23.1407 19.7415 23.8657 19.4346 24.3115L19.4292 24.3061Z" fill="black"/>
</g>
<defs>
<clipPath id="clip0_1697_49">
<rect width="142.154" height="29.5385" fill="white" transform="translate(9.23074 9.23077)"/>
</clipPath>
</defs>
</svg>
